M48
; DRILL file {KiCad 7.0.8} date 2024 February 15, Thursday 12:40:23
; FORMAT={-:-/ absolute / inch / decimal}
; #@! TF.CreationDate,2024-02-15T12:40:23+05:30
; #@! TF.GenerationSoftware,Kicad,Pcbnew,7.0.8
; #@! TF.FileFunction,Plated,1,4,PTH
FMAT,2
INCH
; #@! TA.AperFunction,Plated,PTH,ViaDrill
T1C0.0118
; #@! TA.AperFunction,Plated,PTH,ComponentDrill
T2C0.0118
; #@! TA.AperFunction,Plated,PTH,ViaDrill
T3C0.0157
; #@! TA.AperFunction,Plated,PTH,ComponentDrill
T4C0.0236
; #@! TA.AperFunction,Plated,PTH,ComponentDrill
T5C0.0256
; #@! TA.AperFunction,Plated,PTH,ComponentDrill
T6C0.0394
; #@! TA.AperFunction,Plated,PTH,ComponentDrill
T7C0.0433
%
G90
G05
T1
X3.6646Y-5.278
X3.6661Y-4.2555
X3.6669Y-4.7531
X3.6669Y-4.9807
X3.6685Y-4.5087
X3.6689Y-5.5146
X3.6724Y-3.9354
X3.6772Y-3.6819
X3.7091Y-3.4224
X4.0984Y-4.2953
X4.1181Y-3.9331
X4.1201Y-4.1673
X4.122Y-4.9094
X4.1705Y-3.4075
X4.1929Y-4.0118
X4.1992Y-4.402
X4.2106Y-4.9105
X4.228Y-4.2386
X4.2323Y-4.3984
X4.2323Y-4.7913
X4.2724Y-4.2382
X4.2783Y-4.2035
X4.2874Y-3.6732
X4.2972Y-4.3264
X4.311Y-4.2559
X4.3118Y-4.3862
X4.3138Y-5.0728
X4.3858Y-3.6732
X4.3937Y-5.0197
X4.4252Y-4.3937
X4.4724Y-3.8976
X4.4724Y-4.3937
X4.4882Y-4.3579
X4.5Y-3.8976
X4.5118Y-4.0157
X4.5197Y-3.9882
X4.5256Y-4.7539
X4.5276Y-3.9055
X4.5315Y-3.937
X4.5315Y-3.9646
X4.598Y-4.3795
X4.6059Y-5.0602
X4.6063Y-4.9921
X4.6429Y-5.0437
X4.6449Y-4.6803
X4.6457Y-5.0122
X4.7902Y-3.402
X4.8074Y-4.9399
X4.815Y-4.9114
X4.8268Y-4.3622
X4.8583Y-4.8642
X4.8622Y-4.3642
X4.8898Y-4.3898
X4.8976Y-4.0079
X4.8976Y-4.063
X4.9055Y-5.1654
X4.9094Y-5.126
X4.9213Y-4.7323
X4.9213Y-5.0866
X4.9232Y-4.065
X4.9232Y-4.3917
X4.9244Y-4.002
X4.9524Y-4.065
X4.9528Y-4.0079
X4.9528Y-5.0591
X4.9606Y-4.0354
X4.9724Y-5.1654
X4.9724Y-5.2362
X4.9764Y-5.1378
X4.9764Y-5.3071
X4.9764Y-5.3858
X4.9803Y-4.0118
X4.9803Y-4.063
X4.9803Y-5.0315
X4.9882Y-5.1063
X5.0Y-5.2008
X5.0039Y-3.9055
X5.0039Y-3.9331
X5.0039Y-4.1378
X5.0039Y-4.1654
X5.0039Y-5.3425
X5.0079Y-5.0039
X5.0087Y-4.002
X5.0118Y-4.0701
X5.0157Y-5.0787
X5.0276Y-5.3425
X5.0315Y-4.8976
X5.0354Y-3.8898
X5.0354Y-4.9764
X5.0433Y-5.0512
X5.0551Y-5.3858
X5.063Y-4.9528
X5.0709Y-3.9016
X5.0709Y-4.1378
X5.0709Y-4.1654
X5.0709Y-5.0236
X5.0748Y-3.9331
X5.0906Y-4.9252
X5.0984Y-4.9961
X5.122Y-4.8937
X5.126Y-4.9685
X5.1319Y-4.4665
X5.1417Y-4.2903
X5.1496Y-4.8661
X5.1535Y-4.9409
X5.1614Y-4.2677
X5.1772Y-4.8386
X5.1811Y-4.9134
X5.2047Y-4.811
X5.2087Y-4.8858
X5.2323Y-4.7835
X5.2362Y-4.8583
X5.2598Y-4.7559
X5.2598Y-4.8346
X5.2685Y-4.6307
X5.2701Y-4.5992
X5.2815Y-4.4449
X5.2835Y-3.9291
X5.2874Y-4.811
X5.2913Y-4.7283
X5.2921Y-4.5815
X5.311Y-4.3469
X5.311Y-4.7874
X5.3189Y-3.9291
X5.3228Y-3.8661
X5.3307Y-3.8976
X5.3386Y-4.7677
X5.339Y-4.552
X5.3394Y-5.0579
X5.3547Y-3.4035
X5.3591Y-4.5307
X5.3661Y-4.1772
X5.3701Y-5.0287
X5.374Y-4.7677
X5.3807Y-4.5067
X5.3903Y-4.157
X5.3949Y-5.0012
X5.4028Y-4.522
X5.4228Y-4.5437
X5.4272Y-4.3366
X5.4331Y-4.6929
X5.4362Y-4.9276
X5.4449Y-4.8854
X5.4533Y-4.3597
X5.4559Y-5.0138
X5.4626Y-4.2559
X5.4646Y-4.6614
X5.4764Y-4.0472
X5.4764Y-4.0787
X5.4921Y-4.6358
X5.4921Y-5.1142
X5.5059Y-4.2717
X5.5059Y-4.3051
X5.5059Y-4.3948
X5.5059Y-5.1646
X5.5413Y-4.3346
X5.5433Y-4.0709
X5.5583Y-5.0402
X5.5613Y-4.9702
X5.5787Y-5.2205
X5.5787Y-5.3504
X5.5803Y-5.1059
X5.5984Y-4.3386
X5.6299Y-4.3957
X5.634Y-4.8936
X5.6555Y-4.1772
X5.6594Y-3.8976
X5.6594Y-4.3504
X5.6693Y-5.1575
X5.6811Y-4.9331
X5.687Y-3.7992
X5.7133Y-4.9796
X5.7146Y-4.3366
X5.7165Y-5.2087
X5.7301Y-4.955
X5.749Y-4.1683
X5.7539Y-4.6976
X5.7638Y-4.3228
X5.7697Y-4.3543
X5.7758Y-4.9368
X5.7776Y-4.2165
X5.7864Y-4.8543
X5.7874Y-4.8937
X5.8021Y-4.7977
X5.8078Y-4.8266
X5.815Y-4.0295
X5.815Y-4.9685
X5.815Y-5.0
X5.8189Y-4.061
X5.8248Y-4.8976
X5.8409Y-4.115
X5.8425Y-4.3878
X5.8629Y-4.1469
X5.874Y-4.378
X5.8744Y-5.3055
X5.8819Y-4.8937
X5.8819Y-4.9488
X5.8839Y-4.4705
X5.9055Y-4.2165
X5.9055Y-4.5768
X5.9232Y-4.5354
X5.9252Y-3.8543
X5.9252Y-4.2421
X5.9252Y-4.8937
X5.9488Y-4.7638
X5.9574Y-4.796
X5.9606Y-4.7047
X5.961Y-3.7346
X5.9667Y-4.7344
X5.9674Y-3.7846
X5.9896Y-3.8556
X5.9941Y-4.4429
X5.9961Y-5.0945
X5.9969Y-3.7835
X6.0134Y-3.8382
X6.0354Y-3.8622
X6.0354Y-3.8898
X6.0354Y-3.9173
X6.0354Y-3.9449
X6.0354Y-3.9724
X6.0354Y-4.0
X6.0354Y-4.0276
X6.0354Y-4.0551
X6.0354Y-4.0827
X6.0354Y-4.1102
X6.0354Y-4.1378
X6.0354Y-4.1654
X6.0354Y-4.1929
X6.0354Y-4.7874
X6.0472Y-4.2165
X6.0591Y-5.1024
X6.0709Y-5.3071
X6.0866Y-5.0787
X6.0972Y-4.2531
X6.126Y-4.2421
X6.1339Y-5.0906
X6.1374Y-3.4051
X6.1398Y-4.5336
X6.1417Y-4.3484
X6.1752Y-4.2343
X6.2146Y-4.2697
X6.2146Y-4.3012
X6.2244Y-4.2205
X6.2283Y-4.815
X6.2283Y-4.9921
X6.2413Y-4.3232
X6.2559Y-5.3268
X6.2567Y-4.7689
X6.2681Y-4.349
X6.2953Y-5.0472
X6.2992Y-4.8858
X6.3012Y-4.1638
X6.3012Y-4.2008
X6.3169Y-4.3496
X6.3469Y-4.3094
X6.3543Y-4.3484
X6.3646Y-4.2776
X6.374Y-5.2874
X6.3898Y-4.3504
X6.4331Y-5.2717
X6.6181Y-5.2165
X6.622Y-4.5472
X6.6319Y-4.5157
X6.6339Y-4.3986
X6.6378Y-4.0433
X6.6378Y-4.3661
X6.6626Y-4.5705
X6.663Y-5.1083
X6.6937Y-4.5815
X6.7047Y-5.2008
X6.7323Y-4.5945
X6.7551Y-5.1547
X6.7638Y-4.5984
X6.8201Y-3.4063
X6.8972Y-4.5736
X6.9142Y-4.113
X6.9476Y-4.1181
X6.9528Y-5.1693
X7.0118Y-5.5886
X7.0201Y-4.8807
X7.0394Y-5.2087
X7.0394Y-5.2402
X7.0417Y-4.9055
X7.0567Y-4.5689
X7.063Y-5.2638
X7.0677Y-4.2996
X7.0984Y-5.2638
X7.1102Y-4.1299
X7.1118Y-4.2524
X7.126Y-5.2244
X7.126Y-5.252
X7.1299Y-5.124
X7.1303Y-4.9937
X7.1417Y-4.1299
X7.1535Y-4.063
X7.1575Y-5.3504
X7.1626Y-5.1343
X7.165Y-4.9953
X7.1654Y-4.1102
X7.1693Y-4.0827
X7.1776Y-5.389
X7.1937Y-3.9583
X7.1969Y-4.9949
X7.1969Y-5.3583
X7.2087Y-4.1654
X7.228Y-4.9843
X7.2571Y-3.4043
X7.2941Y-5.1183
X7.3071Y-5.185
X7.315Y-4.7598
X7.315Y-4.7913
X7.3232Y-5.1031
X7.3268Y-4.8228
X7.3484Y-3.9283
X7.3622Y-4.8228
X7.378Y-3.9528
X7.387Y-4.322
X7.3937Y-4.8228
X7.4055Y-5.2323
X7.4094Y-5.1772
X7.4094Y-5.2047
X7.4102Y-5.5894
X7.4134Y-4.7441
X7.4134Y-4.7717
X7.4154Y-4.1969
X7.4331Y-4.8307
X7.4331Y-5.2362
X7.4358Y-4.0004
X7.4421Y-4.0378
X7.4606Y-4.8307
X7.4626Y-4.3335
X7.4685Y-5.2362
X7.4882Y-4.7559
X7.4882Y-4.7913
X7.4882Y-4.8307
X7.4976Y-4.3421
X7.5079Y-5.1496
X7.5118Y-4.1299
X7.5157Y-4.8307
X7.5354Y-4.8701
X7.5394Y-4.0669
X7.5433Y-4.8307
X7.5472Y-4.126
X7.5512Y-4.0945
X7.5606Y-4.6051
X7.561Y-4.5366
X7.5748Y-4.8307
X7.5772Y-4.4961
X7.5925Y-4.5437
X7.5929Y-5.174
X7.5933Y-4.6047
X7.5945Y-4.3732
X7.5984Y-4.7559
X7.5984Y-4.7913
X7.6004Y-4.572
X7.6063Y-4.8307
X7.6378Y-4.8307
X7.6417Y-4.8701
X7.6665Y-3.4051
X7.6693Y-4.8307
X7.6969Y-4.8307
X7.7244Y-4.8307
X7.7472Y-5.5843
X7.752Y-4.8465
X7.752Y-4.874
X7.7598Y-4.7598
X7.8307Y-4.7913
X7.8346Y-4.6732
X7.8622Y-4.4724
X7.8661Y-4.9764
X7.8937Y-5.0748
X7.8976Y-4.7205
X7.939Y-5.5823
X7.9449Y-5.0
X7.9488Y-4.0315
X7.9488Y-4.0748
X7.9669Y-3.4091
X7.9803Y-4.0039
X7.9937Y-4.6811
X8.0142Y-4.4657
X8.0236Y-4.0039
X8.0236Y-4.7008
X8.0283Y-4.3614
X8.0406Y-4.9409
X8.0669Y-4.0039
X8.0701Y-4.9244
X8.0953Y-4.4083
X8.1102Y-4.0039
X8.126Y-4.2087
X8.1283Y-4.3173
X8.1299Y-4.7008
X8.1378Y-4.0709
X8.1417Y-4.0315
X8.1457Y-4.2903
X8.1547Y-4.2224
X8.1941Y-5.5874
X8.2598Y-3.4091
X8.2709Y-4.4146
X8.4732Y-4.7169
X8.4748Y-4.5469
X8.4776Y-5.4028
X8.4791Y-3.6232
X8.4791Y-4.3531
X8.4795Y-3.8004
X8.4807Y-4.1752
X8.4811Y-4.9232
X8.4811Y-5.1476
X8.4843Y-3.9457
T2
X5.0157Y-5.3917
T3
X4.8327Y-4.5354
T5
X5.6386Y-3.7701
X5.6386Y-3.8201
X5.7846Y-3.7701
X5.7846Y-3.8201
X6.1685Y-4.4528
X6.1701Y-4.5807
X6.2185Y-4.4528
X6.2201Y-4.5807
X6.8291Y-5.0878
X6.8303Y-4.3079
X6.8303Y-4.3579
X6.8303Y-4.465
X6.8303Y-4.515
X6.8791Y-5.0878
X6.9689Y-4.3079
X6.9689Y-4.3579
X6.9689Y-4.465
X6.9689Y-4.515
X7.276Y-4.2346
X7.326Y-4.2346
T6
X3.9016Y-3.6043
X3.9016Y-3.9193
X5.2467Y-3.5421
X5.3467Y-3.5421
X5.4467Y-3.5421
X5.5467Y-3.5421
X5.6067Y-5.4421
X5.6467Y-3.5421
X5.7067Y-5.4421
X5.7467Y-3.5421
X5.8067Y-5.4421
X5.8467Y-3.5421
X5.9067Y-5.4421
X5.9467Y-3.5421
X6.0067Y-5.4421
X6.0467Y-3.5421
X6.1067Y-5.4421
X6.1467Y-3.5421
X6.2067Y-5.4421
X6.3067Y-3.5421
X6.3067Y-5.4421
X6.4067Y-3.5421
X6.4154Y-4.485
X6.4154Y-4.585
X6.4154Y-4.685
X6.4154Y-4.785
X6.4154Y-4.885
X6.4154Y-4.985
X6.5067Y-3.5421
X6.5067Y-5.4421
X6.6067Y-3.5421
X6.6067Y-5.4421
X6.7067Y-3.5421
X6.7067Y-5.4421
X6.8067Y-3.5421
X6.8067Y-5.4421
X6.9067Y-3.5421
X6.9067Y-5.4421
X7.0067Y-3.5421
X7.0067Y-5.4421
T7
X3.8512Y-4.6201
X3.8512Y-4.8169
X3.8512Y-5.0138
X4.5945Y-3.6043
X4.7913Y-3.6043
X4.9882Y-3.6043
X7.6449Y-3.613
X7.8417Y-3.613
X8.2283Y-3.5862
X8.2283Y-3.7831
T4
G00X8.2451Y-4.1014
M15
G01X8.2884Y-4.1014
M16
G05
G00X8.2451Y-4.4419
M15
G01X8.2884Y-4.4419
M16
G05
G00X8.2451Y-4.6522
M15
G01X8.2884Y-4.6522
M16
G05
G00X8.2451Y-4.9927
M15
G01X8.2884Y-4.9927
M16
G05
G00X8.4152Y-4.1014
M15
G01X8.4467Y-4.1014
M16
G05
G00X8.4152Y-4.4419
M15
G01X8.4467Y-4.4419
M16
G05
G00X8.4152Y-4.6522
M15
G01X8.4467Y-4.6522
M16
G05
G00X8.4152Y-4.9927
M15
G01X8.4467Y-4.9927
M16
G05
T0
M30
