%TF.GenerationSoftware,KiCad,Pcbnew,7.0.8*%
%TF.CreationDate,2024-02-15T12:40:34+05:30*%
%TF.ProjectId,ESP32-S3_DB,45535033-322d-4533-935f-44422e6b6963,rev?*%
%TF.SameCoordinates,Original*%
%TF.FileFunction,Soldermask,Bot*%
%TF.FilePolarity,Negative*%
%FSLAX46Y46*%
G04 Gerber Fmt 4.6, Leading zero omitted, Abs format (unit mm)*
G04 Created by KiCad (PCBNEW 7.0.8) date 2024-02-15 12:40:34*
%MOMM*%
%LPD*%
G01*
G04 APERTURE LIST*
%ADD10R,1.700000X1.700000*%
%ADD11O,1.700000X1.700000*%
%ADD12C,3.200000*%
%ADD13R,1.000000X1.000000*%
%ADD14O,1.000000X1.000000*%
%ADD15R,2.100000X2.100000*%
%ADD16C,2.100000*%
%ADD17C,0.600000*%
%ADD18O,2.000000X0.900000*%
%ADD19O,1.700000X0.900000*%
%ADD20C,1.000000*%
G04 APERTURE END LIST*
D10*
%TO.C,J9*%
X162950000Y-113920001D03*
D11*
X162950000Y-116460001D03*
X162950000Y-119000001D03*
X162950000Y-121540001D03*
X162950000Y-124080001D03*
X162950000Y-126620001D03*
%TD*%
D12*
%TO.C,H3*%
X210940000Y-138420000D03*
%TD*%
D13*
%TO.C,J6*%
X156720000Y-116350000D03*
D14*
X157990000Y-116350000D03*
%TD*%
D15*
%TO.C,J5*%
X194180000Y-91770000D03*
D16*
X199180000Y-91770000D03*
%TD*%
D13*
%TO.C,J11*%
X146930000Y-95760000D03*
D14*
X146930000Y-97030000D03*
%TD*%
D10*
%TO.C,J14*%
X177970000Y-138230000D03*
D11*
X175430000Y-138230000D03*
X172890000Y-138230000D03*
X170350000Y-138230000D03*
X167810000Y-138230000D03*
X165270000Y-138230000D03*
%TD*%
D10*
%TO.C,J16*%
X160190000Y-138230000D03*
D11*
X157650000Y-138230000D03*
X155110000Y-138230000D03*
X152570000Y-138230000D03*
X150030000Y-138230000D03*
X147490000Y-138230000D03*
X144950000Y-138230000D03*
X142410000Y-138230000D03*
%TD*%
D13*
%TO.C,J22*%
X186080000Y-107560000D03*
D14*
X184810000Y-107560000D03*
%TD*%
D13*
%TO.C,J18*%
X173460000Y-129230000D03*
D14*
X174730000Y-129230000D03*
%TD*%
D12*
%TO.C,H1*%
X97080000Y-138420000D03*
%TD*%
%TO.C,H2*%
X186030000Y-90970000D03*
%TD*%
D17*
%TO.C,J1*%
X210465000Y-111390000D03*
X210465000Y-105610000D03*
D18*
X209975000Y-112825000D03*
D19*
X214145000Y-112825000D03*
D18*
X209975000Y-104175000D03*
D19*
X214145000Y-104175000D03*
%TD*%
D13*
%TO.C,J17*%
X173490000Y-109420000D03*
D14*
X173490000Y-110690000D03*
%TD*%
D13*
%TO.C,J20*%
X177010000Y-113410000D03*
D14*
X177010000Y-114680000D03*
%TD*%
D15*
%TO.C,J2*%
X97820000Y-127350000D03*
D16*
X97820000Y-122350000D03*
X97820000Y-117350000D03*
%TD*%
D13*
%TO.C,J7*%
X156680000Y-113100000D03*
D14*
X157950000Y-113100000D03*
%TD*%
D15*
%TO.C,J3*%
X116700000Y-91550000D03*
D16*
X121700000Y-91550000D03*
X126700000Y-91550000D03*
%TD*%
D20*
%TO.C,J8*%
X99100000Y-91550000D03*
X99100000Y-99550000D03*
%TD*%
D13*
%TO.C,J10*%
X173490000Y-113410000D03*
D14*
X173490000Y-114680000D03*
%TD*%
D10*
%TO.C,J15*%
X156126000Y-89970000D03*
D11*
X153586000Y-89970000D03*
X151046000Y-89970000D03*
X148506000Y-89970000D03*
X145966000Y-89970000D03*
X143426000Y-89970000D03*
X140886000Y-89970000D03*
X138346000Y-89970000D03*
X135806000Y-89970000D03*
X133266000Y-89970000D03*
%TD*%
D13*
%TO.C,J12*%
X143220000Y-95760000D03*
D14*
X143220000Y-97030000D03*
%TD*%
D17*
%TO.C,AE1*%
X127400000Y-136950000D03*
%TD*%
%TO.C,J4*%
X210465000Y-125380000D03*
X210465000Y-119600000D03*
D18*
X209975000Y-126815000D03*
D19*
X214145000Y-126815000D03*
D18*
X209975000Y-118165000D03*
D19*
X214145000Y-118165000D03*
%TD*%
D13*
%TO.C,J19*%
X177010000Y-109420000D03*
D14*
X177010000Y-110690000D03*
%TD*%
D10*
%TO.C,J13*%
X177970000Y-89970000D03*
D11*
X175430000Y-89970000D03*
X172890000Y-89970000D03*
X170350000Y-89970000D03*
X167810000Y-89970000D03*
X165270000Y-89970000D03*
X162730000Y-89970000D03*
X160190000Y-89970000D03*
%TD*%
D15*
%TO.C,J21*%
X209000000Y-91090000D03*
D16*
X209000000Y-96090000D03*
%TD*%
M02*
