%TF.GenerationSoftware,KiCad,Pcbnew,7.0.8*%
%TF.CreationDate,2024-02-15T12:40:34+05:30*%
%TF.ProjectId,ESP32-S3_DB,45535033-322d-4533-935f-44422e6b6963,rev?*%
%TF.SameCoordinates,Original*%
%TF.FileFunction,Soldermask,Top*%
%TF.FilePolarity,Negative*%
%FSLAX46Y46*%
G04 Gerber Fmt 4.6, Leading zero omitted, Abs format (unit mm)*
G04 Created by KiCad (PCBNEW 7.0.8) date 2024-02-15 12:40:34*
%MOMM*%
%LPD*%
G01*
G04 APERTURE LIST*
G04 Aperture macros list*
%AMRoundRect*
0 Rectangle with rounded corners*
0 $1 Rounding radius*
0 $2 $3 $4 $5 $6 $7 $8 $9 X,Y pos of 4 corners*
0 Add a 4 corners polygon primitive as box body*
4,1,4,$2,$3,$4,$5,$6,$7,$8,$9,$2,$3,0*
0 Add four circle primitives for the rounded corners*
1,1,$1+$1,$2,$3*
1,1,$1+$1,$4,$5*
1,1,$1+$1,$6,$7*
1,1,$1+$1,$8,$9*
0 Add four rect primitives between the rounded corners*
20,1,$1+$1,$2,$3,$4,$5,0*
20,1,$1+$1,$4,$5,$6,$7,0*
20,1,$1+$1,$6,$7,$8,$9,0*
20,1,$1+$1,$8,$9,$2,$3,0*%
%AMRotRect*
0 Rectangle, with rotation*
0 The origin of the aperture is its center*
0 $1 length*
0 $2 width*
0 $3 Rotation angle, in degrees counterclockwise*
0 Add horizontal line*
21,1,$1,$2,0,0,$3*%
G04 Aperture macros list end*
%ADD10C,0.010000*%
%ADD11RoundRect,0.135000X0.185000X-0.135000X0.185000X0.135000X-0.185000X0.135000X-0.185000X-0.135000X0*%
%ADD12RoundRect,0.140000X0.219203X0.021213X0.021213X0.219203X-0.219203X-0.021213X-0.021213X-0.219203X0*%
%ADD13R,0.650000X0.400000*%
%ADD14R,1.700000X1.700000*%
%ADD15O,1.700000X1.700000*%
%ADD16RoundRect,0.250000X0.250000X0.475000X-0.250000X0.475000X-0.250000X-0.475000X0.250000X-0.475000X0*%
%ADD17RoundRect,0.200000X-0.275000X0.200000X-0.275000X-0.200000X0.275000X-0.200000X0.275000X0.200000X0*%
%ADD18RoundRect,0.218750X0.256250X-0.218750X0.256250X0.218750X-0.256250X0.218750X-0.256250X-0.218750X0*%
%ADD19C,3.200000*%
%ADD20RoundRect,0.250000X-0.475000X0.250000X-0.475000X-0.250000X0.475000X-0.250000X0.475000X0.250000X0*%
%ADD21RoundRect,0.135000X-0.185000X0.135000X-0.185000X-0.135000X0.185000X-0.135000X0.185000X0.135000X0*%
%ADD22R,1.800000X1.200000*%
%ADD23RotRect,1.400000X1.200000X315.000000*%
%ADD24RoundRect,0.218750X-0.218750X-0.256250X0.218750X-0.256250X0.218750X0.256250X-0.218750X0.256250X0*%
%ADD25R,1.000000X0.700000*%
%ADD26R,0.600000X0.700000*%
%ADD27R,1.000000X1.000000*%
%ADD28O,1.000000X1.000000*%
%ADD29R,2.100000X2.100000*%
%ADD30C,2.100000*%
%ADD31RoundRect,0.135000X0.135000X0.185000X-0.135000X0.185000X-0.135000X-0.185000X0.135000X-0.185000X0*%
%ADD32RoundRect,0.250000X0.650000X-0.325000X0.650000X0.325000X-0.650000X0.325000X-0.650000X-0.325000X0*%
%ADD33RoundRect,0.225000X0.335876X0.017678X0.017678X0.335876X-0.335876X-0.017678X-0.017678X-0.335876X0*%
%ADD34RoundRect,0.250000X-0.512652X-0.159099X-0.159099X-0.512652X0.512652X0.159099X0.159099X0.512652X0*%
%ADD35RoundRect,0.225000X0.225000X0.250000X-0.225000X0.250000X-0.225000X-0.250000X0.225000X-0.250000X0*%
%ADD36RoundRect,0.140000X-0.140000X-0.170000X0.140000X-0.170000X0.140000X0.170000X-0.140000X0.170000X0*%
%ADD37RoundRect,0.140000X0.170000X-0.140000X0.170000X0.140000X-0.170000X0.140000X-0.170000X-0.140000X0*%
%ADD38RoundRect,0.135000X-0.135000X-0.185000X0.135000X-0.185000X0.135000X0.185000X-0.135000X0.185000X0*%
%ADD39RoundRect,0.144000X-0.258000X0.833000X-0.258000X-0.833000X0.258000X-0.833000X0.258000X0.833000X0*%
%ADD40RoundRect,0.102000X-1.600000X1.100000X-1.600000X-1.100000X1.600000X-1.100000X1.600000X1.100000X0*%
%ADD41RoundRect,0.225000X-0.225000X-0.250000X0.225000X-0.250000X0.225000X0.250000X-0.225000X0.250000X0*%
%ADD42RoundRect,0.200000X0.200000X0.275000X-0.200000X0.275000X-0.200000X-0.275000X0.200000X-0.275000X0*%
%ADD43RoundRect,0.200000X0.200000X-0.550000X0.200000X0.550000X-0.200000X0.550000X-0.200000X-0.550000X0*%
%ADD44RoundRect,0.140000X0.140000X0.170000X-0.140000X0.170000X-0.140000X-0.170000X0.140000X-0.170000X0*%
%ADD45RoundRect,0.250000X0.475000X-0.250000X0.475000X0.250000X-0.475000X0.250000X-0.475000X-0.250000X0*%
%ADD46C,0.600000*%
%ADD47O,2.000000X0.900000*%
%ADD48O,1.700000X0.900000*%
%ADD49RoundRect,0.140000X-0.170000X0.140000X-0.170000X-0.140000X0.170000X-0.140000X0.170000X0.140000X0*%
%ADD50RoundRect,0.225000X0.250000X-0.225000X0.250000X0.225000X-0.250000X0.225000X-0.250000X-0.225000X0*%
%ADD51RoundRect,0.218750X-0.256250X0.218750X-0.256250X-0.218750X0.256250X-0.218750X0.256250X0.218750X0*%
%ADD52RoundRect,0.147500X0.172500X-0.147500X0.172500X0.147500X-0.172500X0.147500X-0.172500X-0.147500X0*%
%ADD53R,1.400000X0.300000*%
%ADD54RoundRect,0.225000X-0.250000X0.225000X-0.250000X-0.225000X0.250000X-0.225000X0.250000X0.225000X0*%
%ADD55R,0.420000X0.600000*%
%ADD56RoundRect,0.150000X-0.512500X-0.150000X0.512500X-0.150000X0.512500X0.150000X-0.512500X0.150000X0*%
%ADD57RoundRect,0.140000X-0.219203X-0.021213X-0.021213X-0.219203X0.219203X0.021213X0.021213X0.219203X0*%
%ADD58RoundRect,0.218750X0.218750X0.256250X-0.218750X0.256250X-0.218750X-0.256250X0.218750X-0.256250X0*%
%ADD59RoundRect,0.225000X-0.335876X-0.017678X-0.017678X-0.335876X0.335876X0.017678X0.017678X0.335876X0*%
%ADD60R,0.700000X1.000000*%
%ADD61R,0.700000X0.600000*%
%ADD62R,2.200000X1.200000*%
%ADD63C,1.000000*%
%ADD64R,1.500000X1.600000*%
%ADD65R,1.600000X0.700000*%
%ADD66R,1.500000X1.200000*%
%ADD67RoundRect,0.200000X0.335876X0.053033X0.053033X0.335876X-0.335876X-0.053033X-0.053033X-0.335876X0*%
%ADD68RotRect,0.660000X0.200000X45.000000*%
%ADD69RotRect,0.200000X0.660000X45.000000*%
%ADD70RotRect,4.000000X4.000000X45.000000*%
%ADD71RoundRect,0.102000X0.490000X-1.200000X0.490000X1.200000X-0.490000X1.200000X-0.490000X-1.200000X0*%
%ADD72RoundRect,0.102000X2.930000X-2.785000X2.930000X2.785000X-2.930000X2.785000X-2.930000X-2.785000X0*%
%ADD73RoundRect,0.102000X-0.490000X1.200000X-0.490000X-1.200000X0.490000X-1.200000X0.490000X1.200000X0*%
%ADD74RoundRect,0.102000X0.500000X1.750000X-0.500000X1.750000X-0.500000X-1.750000X0.500000X-1.750000X0*%
%ADD75RoundRect,0.102000X0.750000X1.700000X-0.750000X1.700000X-0.750000X-1.700000X0.750000X-1.700000X0*%
%ADD76R,0.500000X0.500000*%
%ADD77RotRect,1.300000X1.800000X45.000000*%
%ADD78RoundRect,0.200000X0.275000X-0.200000X0.275000X0.200000X-0.275000X0.200000X-0.275000X-0.200000X0*%
%ADD79RoundRect,0.250000X0.512652X0.159099X0.159099X0.512652X-0.512652X-0.159099X-0.159099X-0.512652X0*%
%ADD80RoundRect,0.150000X0.675000X0.150000X-0.675000X0.150000X-0.675000X-0.150000X0.675000X-0.150000X0*%
%ADD81RoundRect,0.200000X-0.200000X-0.275000X0.200000X-0.275000X0.200000X0.275000X-0.200000X0.275000X0*%
G04 APERTURE END LIST*
%TO.C,J1*%
D10*
X210015000Y-112050000D02*
X208775000Y-112050000D01*
X208775000Y-111350000D01*
X210015000Y-111350000D01*
X210015000Y-112050000D01*
G36*
X210015000Y-112050000D02*
G01*
X208775000Y-112050000D01*
X208775000Y-111350000D01*
X210015000Y-111350000D01*
X210015000Y-112050000D01*
G37*
X210015000Y-111250000D02*
X208775000Y-111250000D01*
X208775000Y-110550000D01*
X210015000Y-110550000D01*
X210015000Y-111250000D01*
G36*
X210015000Y-111250000D02*
G01*
X208775000Y-111250000D01*
X208775000Y-110550000D01*
X210015000Y-110550000D01*
X210015000Y-111250000D01*
G37*
X210015000Y-110450000D02*
X208775000Y-110450000D01*
X208775000Y-110050000D01*
X210015000Y-110050000D01*
X210015000Y-110450000D01*
G36*
X210015000Y-110450000D02*
G01*
X208775000Y-110450000D01*
X208775000Y-110050000D01*
X210015000Y-110050000D01*
X210015000Y-110450000D01*
G37*
X210015000Y-109950000D02*
X208775000Y-109950000D01*
X208775000Y-109550000D01*
X210015000Y-109550000D01*
X210015000Y-109950000D01*
G36*
X210015000Y-109950000D02*
G01*
X208775000Y-109950000D01*
X208775000Y-109550000D01*
X210015000Y-109550000D01*
X210015000Y-109950000D01*
G37*
X210015000Y-109450000D02*
X208775000Y-109450000D01*
X208775000Y-109050000D01*
X210015000Y-109050000D01*
X210015000Y-109450000D01*
G36*
X210015000Y-109450000D02*
G01*
X208775000Y-109450000D01*
X208775000Y-109050000D01*
X210015000Y-109050000D01*
X210015000Y-109450000D01*
G37*
X210015000Y-108950000D02*
X208775000Y-108950000D01*
X208775000Y-108550000D01*
X210015000Y-108550000D01*
X210015000Y-108950000D01*
G36*
X210015000Y-108950000D02*
G01*
X208775000Y-108950000D01*
X208775000Y-108550000D01*
X210015000Y-108550000D01*
X210015000Y-108950000D01*
G37*
X210015000Y-108450000D02*
X208775000Y-108450000D01*
X208775000Y-108050000D01*
X210015000Y-108050000D01*
X210015000Y-108450000D01*
G36*
X210015000Y-108450000D02*
G01*
X208775000Y-108450000D01*
X208775000Y-108050000D01*
X210015000Y-108050000D01*
X210015000Y-108450000D01*
G37*
X210015000Y-107950000D02*
X208775000Y-107950000D01*
X208775000Y-107550000D01*
X210015000Y-107550000D01*
X210015000Y-107950000D01*
G36*
X210015000Y-107950000D02*
G01*
X208775000Y-107950000D01*
X208775000Y-107550000D01*
X210015000Y-107550000D01*
X210015000Y-107950000D01*
G37*
X210015000Y-107450000D02*
X208775000Y-107450000D01*
X208775000Y-107050000D01*
X210015000Y-107050000D01*
X210015000Y-107450000D01*
G36*
X210015000Y-107450000D02*
G01*
X208775000Y-107450000D01*
X208775000Y-107050000D01*
X210015000Y-107050000D01*
X210015000Y-107450000D01*
G37*
X210015000Y-106950000D02*
X208775000Y-106950000D01*
X208775000Y-106550000D01*
X210015000Y-106550000D01*
X210015000Y-106950000D01*
G36*
X210015000Y-106950000D02*
G01*
X208775000Y-106950000D01*
X208775000Y-106550000D01*
X210015000Y-106550000D01*
X210015000Y-106950000D01*
G37*
X210015000Y-106450000D02*
X208775000Y-106450000D01*
X208775000Y-105750000D01*
X210015000Y-105750000D01*
X210015000Y-106450000D01*
G36*
X210015000Y-106450000D02*
G01*
X208775000Y-106450000D01*
X208775000Y-105750000D01*
X210015000Y-105750000D01*
X210015000Y-106450000D01*
G37*
X210015000Y-105650000D02*
X208775000Y-105650000D01*
X208775000Y-104950000D01*
X210015000Y-104950000D01*
X210015000Y-105650000D01*
G36*
X210015000Y-105650000D02*
G01*
X208775000Y-105650000D01*
X208775000Y-104950000D01*
X210015000Y-104950000D01*
X210015000Y-105650000D01*
G37*
%TO.C,J4*%
X210015000Y-126040000D02*
X208775000Y-126040000D01*
X208775000Y-125340000D01*
X210015000Y-125340000D01*
X210015000Y-126040000D01*
G36*
X210015000Y-126040000D02*
G01*
X208775000Y-126040000D01*
X208775000Y-125340000D01*
X210015000Y-125340000D01*
X210015000Y-126040000D01*
G37*
X210015000Y-125240000D02*
X208775000Y-125240000D01*
X208775000Y-124540000D01*
X210015000Y-124540000D01*
X210015000Y-125240000D01*
G36*
X210015000Y-125240000D02*
G01*
X208775000Y-125240000D01*
X208775000Y-124540000D01*
X210015000Y-124540000D01*
X210015000Y-125240000D01*
G37*
X210015000Y-124440000D02*
X208775000Y-124440000D01*
X208775000Y-124040000D01*
X210015000Y-124040000D01*
X210015000Y-124440000D01*
G36*
X210015000Y-124440000D02*
G01*
X208775000Y-124440000D01*
X208775000Y-124040000D01*
X210015000Y-124040000D01*
X210015000Y-124440000D01*
G37*
X210015000Y-123940000D02*
X208775000Y-123940000D01*
X208775000Y-123540000D01*
X210015000Y-123540000D01*
X210015000Y-123940000D01*
G36*
X210015000Y-123940000D02*
G01*
X208775000Y-123940000D01*
X208775000Y-123540000D01*
X210015000Y-123540000D01*
X210015000Y-123940000D01*
G37*
X210015000Y-123440000D02*
X208775000Y-123440000D01*
X208775000Y-123040000D01*
X210015000Y-123040000D01*
X210015000Y-123440000D01*
G36*
X210015000Y-123440000D02*
G01*
X208775000Y-123440000D01*
X208775000Y-123040000D01*
X210015000Y-123040000D01*
X210015000Y-123440000D01*
G37*
X210015000Y-122940000D02*
X208775000Y-122940000D01*
X208775000Y-122540000D01*
X210015000Y-122540000D01*
X210015000Y-122940000D01*
G36*
X210015000Y-122940000D02*
G01*
X208775000Y-122940000D01*
X208775000Y-122540000D01*
X210015000Y-122540000D01*
X210015000Y-122940000D01*
G37*
X210015000Y-122440000D02*
X208775000Y-122440000D01*
X208775000Y-122040000D01*
X210015000Y-122040000D01*
X210015000Y-122440000D01*
G36*
X210015000Y-122440000D02*
G01*
X208775000Y-122440000D01*
X208775000Y-122040000D01*
X210015000Y-122040000D01*
X210015000Y-122440000D01*
G37*
X210015000Y-121940000D02*
X208775000Y-121940000D01*
X208775000Y-121540000D01*
X210015000Y-121540000D01*
X210015000Y-121940000D01*
G36*
X210015000Y-121940000D02*
G01*
X208775000Y-121940000D01*
X208775000Y-121540000D01*
X210015000Y-121540000D01*
X210015000Y-121940000D01*
G37*
X210015000Y-121440000D02*
X208775000Y-121440000D01*
X208775000Y-121040000D01*
X210015000Y-121040000D01*
X210015000Y-121440000D01*
G36*
X210015000Y-121440000D02*
G01*
X208775000Y-121440000D01*
X208775000Y-121040000D01*
X210015000Y-121040000D01*
X210015000Y-121440000D01*
G37*
X210015000Y-120940000D02*
X208775000Y-120940000D01*
X208775000Y-120540000D01*
X210015000Y-120540000D01*
X210015000Y-120940000D01*
G36*
X210015000Y-120940000D02*
G01*
X208775000Y-120940000D01*
X208775000Y-120540000D01*
X210015000Y-120540000D01*
X210015000Y-120940000D01*
G37*
X210015000Y-120440000D02*
X208775000Y-120440000D01*
X208775000Y-119740000D01*
X210015000Y-119740000D01*
X210015000Y-120440000D01*
G36*
X210015000Y-120440000D02*
G01*
X208775000Y-120440000D01*
X208775000Y-119740000D01*
X210015000Y-119740000D01*
X210015000Y-120440000D01*
G37*
X210015000Y-119640000D02*
X208775000Y-119640000D01*
X208775000Y-118940000D01*
X210015000Y-118940000D01*
X210015000Y-119640000D01*
G36*
X210015000Y-119640000D02*
G01*
X208775000Y-119640000D01*
X208775000Y-118940000D01*
X210015000Y-118940000D01*
X210015000Y-119640000D01*
G37*
%TD*%
D11*
%TO.C,R43*%
X185420000Y-115050000D03*
X185420000Y-114030000D03*
%TD*%
D12*
%TO.C,C11*%
X142009411Y-111369411D03*
X141330589Y-110690589D03*
%TD*%
D13*
%TO.C,D10*%
X106790000Y-108310000D03*
X106790000Y-107660000D03*
X106790000Y-107010000D03*
X104890000Y-107010000D03*
X104890000Y-107660000D03*
X104890000Y-108310000D03*
%TD*%
D14*
%TO.C,J9*%
X162950000Y-113920001D03*
D15*
X162950000Y-116460001D03*
X162950000Y-119000001D03*
X162950000Y-121540001D03*
X162950000Y-124080001D03*
X162950000Y-126620001D03*
%TD*%
D16*
%TO.C,C43*%
X156190000Y-101010000D03*
X154290000Y-101010000D03*
%TD*%
D17*
%TO.C,R14*%
X136400000Y-96975000D03*
X136400000Y-98625000D03*
%TD*%
D18*
%TO.C,D8*%
X176000000Y-119887500D03*
X176000000Y-118312500D03*
%TD*%
D19*
%TO.C,H3*%
X210940000Y-138420000D03*
%TD*%
D20*
%TO.C,C9*%
X191580000Y-119055000D03*
X191580000Y-120955000D03*
%TD*%
D21*
%TO.C,R1*%
X138760000Y-128200000D03*
X138760000Y-129220000D03*
%TD*%
D22*
%TO.C,SW1*%
X176000000Y-98405000D03*
X182200000Y-98405000D03*
X176000000Y-102105000D03*
X182200000Y-102105000D03*
%TD*%
D23*
%TO.C,Y1*%
X132821142Y-112423223D03*
X134376777Y-113978858D03*
X135578858Y-112776777D03*
X134023223Y-111221142D03*
%TD*%
D12*
%TO.C,C32*%
X154539411Y-122739411D03*
X153860589Y-122060589D03*
%TD*%
D22*
%TO.C,SW3*%
X190340000Y-138120000D03*
X184140000Y-138120000D03*
X190340000Y-134420000D03*
X184140000Y-134420000D03*
%TD*%
D18*
%TO.C,D3*%
X171000000Y-119887500D03*
X171000000Y-118312500D03*
%TD*%
D24*
%TO.C,D13*%
X181902500Y-115820000D03*
X183477500Y-115820000D03*
%TD*%
D25*
%TO.C,D11*%
X204780000Y-121490000D03*
D26*
X203080000Y-121490000D03*
X203080000Y-123490000D03*
X204980000Y-123490000D03*
%TD*%
D27*
%TO.C,J6*%
X156720000Y-116350000D03*
D28*
X157990000Y-116350000D03*
%TD*%
D29*
%TO.C,J5*%
X194180000Y-91770000D03*
D30*
X199180000Y-91770000D03*
%TD*%
D21*
%TO.C,R6*%
X206050000Y-126230000D03*
X206050000Y-127250000D03*
%TD*%
D31*
%TO.C,R31*%
X122560000Y-122370000D03*
X121540000Y-122370000D03*
%TD*%
D21*
%TO.C,R10*%
X181930000Y-131460000D03*
X181930000Y-132480000D03*
%TD*%
D27*
%TO.C,J11*%
X146930000Y-95760000D03*
D28*
X146930000Y-97030000D03*
%TD*%
D12*
%TO.C,C31*%
X150539411Y-126839411D03*
X149860589Y-126160589D03*
%TD*%
D32*
%TO.C,C39*%
X195410000Y-126840000D03*
X195410000Y-123890000D03*
%TD*%
D11*
%TO.C,R54*%
X110640000Y-114100000D03*
X110640000Y-113080000D03*
%TD*%
D14*
%TO.C,J14*%
X177970000Y-138230000D03*
D15*
X175430000Y-138230000D03*
X172890000Y-138230000D03*
X170350000Y-138230000D03*
X167810000Y-138230000D03*
X165270000Y-138230000D03*
%TD*%
D33*
%TO.C,C14*%
X137848008Y-117048008D03*
X136751992Y-115951992D03*
%TD*%
D34*
%TO.C,C2*%
X134028249Y-125648249D03*
X135371751Y-126991751D03*
%TD*%
D11*
%TO.C,R21*%
X141740000Y-131600000D03*
X141740000Y-130580000D03*
%TD*%
D35*
%TO.C,C16*%
X163645000Y-109460000D03*
X162095000Y-109460000D03*
%TD*%
D36*
%TO.C,C25*%
X127040000Y-102550000D03*
X128000000Y-102550000D03*
%TD*%
D14*
%TO.C,J16*%
X160190000Y-138230000D03*
D15*
X157650000Y-138230000D03*
X155110000Y-138230000D03*
X152570000Y-138230000D03*
X150030000Y-138230000D03*
X147490000Y-138230000D03*
X144950000Y-138230000D03*
X142410000Y-138230000D03*
%TD*%
D37*
%TO.C,C24*%
X139960000Y-103030000D03*
X139960000Y-102070000D03*
%TD*%
D38*
%TO.C,R40*%
X111390000Y-109370000D03*
X112410000Y-109370000D03*
%TD*%
D39*
%TO.C,U3*%
X184920000Y-119835000D03*
X183650000Y-119835000D03*
X182380000Y-119835000D03*
X181110000Y-119835000D03*
X181110000Y-125005000D03*
X182380000Y-125005000D03*
X183650000Y-125005000D03*
X184920000Y-125005000D03*
D40*
X183015000Y-122420000D03*
%TD*%
D41*
%TO.C,C29*%
X112445000Y-100180000D03*
X113995000Y-100180000D03*
%TD*%
D38*
%TO.C,R9*%
X188830000Y-118865000D03*
X189850000Y-118865000D03*
%TD*%
D11*
%TO.C,R27*%
X108940000Y-122325000D03*
X108940000Y-121305000D03*
%TD*%
D38*
%TO.C,R38*%
X139770000Y-100645000D03*
X140790000Y-100645000D03*
%TD*%
D11*
%TO.C,R7*%
X205140000Y-119810000D03*
X205140000Y-118790000D03*
%TD*%
D38*
%TO.C,R11*%
X109620000Y-106810000D03*
X110640000Y-106810000D03*
%TD*%
D31*
%TO.C,R39*%
X206110000Y-131400000D03*
X205090000Y-131400000D03*
%TD*%
D21*
%TO.C,R50*%
X201420000Y-123500000D03*
X201420000Y-124520000D03*
%TD*%
D36*
%TO.C,C5*%
X125320000Y-135700000D03*
X126280000Y-135700000D03*
%TD*%
D27*
%TO.C,J22*%
X186080000Y-107560000D03*
D28*
X184810000Y-107560000D03*
%TD*%
D42*
%TO.C,R15*%
X202235000Y-117010000D03*
X200585000Y-117010000D03*
%TD*%
D36*
%TO.C,C7*%
X125320000Y-132100000D03*
X126280000Y-132100000D03*
%TD*%
D31*
%TO.C,R24*%
X111510000Y-124000000D03*
X110490000Y-124000000D03*
%TD*%
%TO.C,R5*%
X201980000Y-106270000D03*
X200960000Y-106270000D03*
%TD*%
D27*
%TO.C,J18*%
X173460000Y-129230000D03*
D28*
X174730000Y-129230000D03*
%TD*%
D43*
%TO.C,TP4*%
X142620000Y-100645000D03*
%TD*%
D44*
%TO.C,C20*%
X192140000Y-110970000D03*
X191180000Y-110970000D03*
%TD*%
D19*
%TO.C,H1*%
X97080000Y-138420000D03*
%TD*%
D36*
%TO.C,C22*%
X116170000Y-127715000D03*
X117130000Y-127715000D03*
%TD*%
D32*
%TO.C,C37*%
X189960000Y-126840000D03*
X189960000Y-123890000D03*
%TD*%
D21*
%TO.C,R4*%
X206400000Y-110770000D03*
X206400000Y-111790000D03*
%TD*%
D43*
%TO.C,TP5*%
X126700000Y-124275000D03*
%TD*%
D21*
%TO.C,R51*%
X109120000Y-113090000D03*
X109120000Y-114110000D03*
%TD*%
D45*
%TO.C,C40*%
X203410000Y-104880000D03*
X203410000Y-102980000D03*
%TD*%
D21*
%TO.C,R29*%
X121340000Y-123765000D03*
X121340000Y-124785000D03*
%TD*%
%TO.C,R20*%
X188510000Y-109920000D03*
X188510000Y-110940000D03*
%TD*%
D38*
%TO.C,R41*%
X110470000Y-108060000D03*
X111490000Y-108060000D03*
%TD*%
D19*
%TO.C,H2*%
X186030000Y-90970000D03*
%TD*%
D11*
%TO.C,R28*%
X108930000Y-127455000D03*
X108930000Y-126435000D03*
%TD*%
D46*
%TO.C,J1*%
X210465000Y-111390000D03*
X210465000Y-105610000D03*
D47*
X209975000Y-112825000D03*
D48*
X214145000Y-112825000D03*
D47*
X209975000Y-104175000D03*
D48*
X214145000Y-104175000D03*
%TD*%
D38*
%TO.C,R35*%
X129270000Y-103435000D03*
X130290000Y-103435000D03*
%TD*%
D27*
%TO.C,J17*%
X173490000Y-109420000D03*
D28*
X173490000Y-110690000D03*
%TD*%
D49*
%TO.C,C8*%
X138700000Y-121470000D03*
X138700000Y-122430000D03*
%TD*%
D38*
%TO.C,R37*%
X139780000Y-104455000D03*
X140800000Y-104455000D03*
%TD*%
D50*
%TO.C,C41*%
X205350000Y-104615000D03*
X205350000Y-103065000D03*
%TD*%
D51*
%TO.C,D9*%
X178400000Y-118322500D03*
X178400000Y-119897500D03*
%TD*%
D52*
%TO.C,L2*%
X125320000Y-134365000D03*
X125320000Y-133395000D03*
%TD*%
D31*
%TO.C,R25*%
X111510000Y-125270000D03*
X110490000Y-125270000D03*
%TD*%
D11*
%TO.C,R55*%
X143110000Y-131910000D03*
X143110000Y-130890000D03*
%TD*%
D42*
%TO.C,R22*%
X167545000Y-106840000D03*
X165895000Y-106840000D03*
%TD*%
D53*
%TO.C,U4*%
X193930000Y-114530000D03*
X193930000Y-114030000D03*
X193930000Y-113530000D03*
X193930000Y-113030000D03*
X193930000Y-112530000D03*
X189530000Y-112530000D03*
X189530000Y-113030000D03*
X189530000Y-113530000D03*
X189530000Y-114030000D03*
X189530000Y-114530000D03*
%TD*%
D32*
%TO.C,C1*%
X187250000Y-126840000D03*
X187250000Y-123890000D03*
%TD*%
D27*
%TO.C,J20*%
X177010000Y-113410000D03*
D28*
X177010000Y-114680000D03*
%TD*%
D38*
%TO.C,R42*%
X112030000Y-110690000D03*
X113050000Y-110690000D03*
%TD*%
D42*
%TO.C,R13*%
X113230000Y-128855000D03*
X111580000Y-128855000D03*
%TD*%
%TO.C,R23*%
X156075000Y-96490000D03*
X154425000Y-96490000D03*
%TD*%
D29*
%TO.C,J2*%
X97820000Y-127350000D03*
D30*
X97820000Y-122350000D03*
X97820000Y-117350000D03*
%TD*%
D31*
%TO.C,R45*%
X183200000Y-112440000D03*
X182180000Y-112440000D03*
%TD*%
D35*
%TO.C,C28*%
X190735000Y-132040000D03*
X189185000Y-132040000D03*
%TD*%
D16*
%TO.C,C42*%
X156180000Y-103390000D03*
X154280000Y-103390000D03*
%TD*%
D52*
%TO.C,L3*%
X137570000Y-122455000D03*
X137570000Y-121485000D03*
%TD*%
D20*
%TO.C,C10*%
X187000000Y-119015000D03*
X187000000Y-120915000D03*
%TD*%
D31*
%TO.C,R46*%
X183200000Y-114030000D03*
X182180000Y-114030000D03*
%TD*%
D43*
%TO.C,TP3*%
X142620000Y-104455000D03*
%TD*%
D32*
%TO.C,C38*%
X192700000Y-126840000D03*
X192700000Y-123890000D03*
%TD*%
D54*
%TO.C,C36*%
X179900000Y-131125000D03*
X179900000Y-132675000D03*
%TD*%
D12*
%TO.C,C12*%
X136539411Y-111239411D03*
X135860589Y-110560589D03*
%TD*%
D36*
%TO.C,C30*%
X112740000Y-101550000D03*
X113700000Y-101550000D03*
%TD*%
D44*
%TO.C,C19*%
X192140000Y-116170000D03*
X191180000Y-116170000D03*
%TD*%
%TO.C,C21*%
X190940000Y-104090000D03*
X189980000Y-104090000D03*
%TD*%
D51*
%TO.C,L4*%
X183970000Y-130452500D03*
X183970000Y-132027500D03*
%TD*%
D43*
%TO.C,TP2*%
X124980000Y-122370000D03*
%TD*%
D55*
%TO.C,U2*%
X192320000Y-107630000D03*
X191670000Y-107630000D03*
X191020000Y-107630000D03*
X191020000Y-109530000D03*
X191670000Y-109530000D03*
X192320000Y-109530000D03*
%TD*%
D56*
%TO.C,D6*%
X103662500Y-123750000D03*
X103662500Y-125650000D03*
X105937500Y-124700000D03*
%TD*%
D57*
%TO.C,C6*%
X136640589Y-123600589D03*
X137319411Y-124279411D03*
%TD*%
D58*
%TO.C,D1*%
X205787500Y-129800000D03*
X204212500Y-129800000D03*
%TD*%
D27*
%TO.C,J7*%
X156680000Y-113100000D03*
D28*
X157950000Y-113100000D03*
%TD*%
D42*
%TO.C,R47*%
X205145000Y-107560000D03*
X203495000Y-107560000D03*
%TD*%
D24*
%TO.C,D12*%
X181902500Y-110510000D03*
X183477500Y-110510000D03*
%TD*%
D38*
%TO.C,R34*%
X134410000Y-106050000D03*
X135430000Y-106050000D03*
%TD*%
D59*
%TO.C,C3*%
X135541992Y-124511992D03*
X136638008Y-125608008D03*
%TD*%
D29*
%TO.C,J3*%
X116700000Y-91550000D03*
D30*
X121700000Y-91550000D03*
X126700000Y-91550000D03*
%TD*%
D60*
%TO.C,D2*%
X202640000Y-113090000D03*
D61*
X202640000Y-111390000D03*
X200640000Y-111390000D03*
X200640000Y-113290000D03*
%TD*%
D12*
%TO.C,C15*%
X131639411Y-113639411D03*
X130960589Y-112960589D03*
%TD*%
D51*
%TO.C,D7*%
X173500000Y-118312500D03*
X173500000Y-119887500D03*
%TD*%
D56*
%TO.C,D4*%
X122692500Y-101600000D03*
X122692500Y-103500000D03*
X124967500Y-102550000D03*
%TD*%
D62*
%TO.C,J8*%
X99500000Y-88700000D03*
D63*
X99100000Y-91550000D03*
X99100000Y-99550000D03*
D64*
X109100000Y-103350000D03*
D62*
X99500000Y-104300000D03*
D65*
X110100000Y-98750000D03*
X110100000Y-97650000D03*
X110100000Y-96550000D03*
X110100000Y-95450000D03*
X110100000Y-94350000D03*
X110100000Y-93250000D03*
X110100000Y-92150000D03*
X110100000Y-91050000D03*
X110100000Y-89950000D03*
D66*
X109100000Y-88700000D03*
%TD*%
D27*
%TO.C,J10*%
X173490000Y-113410000D03*
D28*
X173490000Y-114680000D03*
%TD*%
D42*
%TO.C,R12*%
X114045000Y-103150000D03*
X112395000Y-103150000D03*
%TD*%
D16*
%TO.C,C44*%
X156200000Y-98600000D03*
X154300000Y-98600000D03*
%TD*%
D14*
%TO.C,J15*%
X156126000Y-89970000D03*
D15*
X153586000Y-89970000D03*
X151046000Y-89970000D03*
X148506000Y-89970000D03*
X145966000Y-89970000D03*
X143426000Y-89970000D03*
X140886000Y-89970000D03*
X138346000Y-89970000D03*
X135806000Y-89970000D03*
X133266000Y-89970000D03*
%TD*%
D27*
%TO.C,J12*%
X143220000Y-95760000D03*
D28*
X143220000Y-97030000D03*
%TD*%
D67*
%TO.C,R17*%
X133973363Y-128393363D03*
X132806637Y-127226637D03*
%TD*%
D22*
%TO.C,SW2*%
X185300000Y-98435000D03*
X191500000Y-98435000D03*
X185300000Y-102135000D03*
X191500000Y-102135000D03*
%TD*%
D68*
%TO.C,U1*%
X140622830Y-117705197D03*
X140905673Y-117988040D03*
X141188516Y-118270883D03*
X141471358Y-118553726D03*
X141754201Y-118836568D03*
X142037044Y-119119411D03*
X142319887Y-119402254D03*
X142602729Y-119685096D03*
X142885572Y-119967939D03*
X143168415Y-120250782D03*
X143451257Y-120533625D03*
X143734100Y-120816467D03*
X144016943Y-121099310D03*
X144299786Y-121382153D03*
D69*
X145445298Y-121382153D03*
X145728141Y-121099310D03*
X146010984Y-120816467D03*
X146293827Y-120533625D03*
X146576669Y-120250782D03*
X146859512Y-119967939D03*
X147142355Y-119685096D03*
X147425197Y-119402254D03*
X147708040Y-119119411D03*
X147990883Y-118836568D03*
X148273726Y-118553726D03*
X148556568Y-118270883D03*
X148839411Y-117988040D03*
X149122254Y-117705197D03*
D68*
X149122254Y-116559685D03*
X148839411Y-116276842D03*
X148556568Y-115993999D03*
X148273726Y-115711156D03*
X147990883Y-115428314D03*
X147708040Y-115145471D03*
X147425197Y-114862628D03*
X147142355Y-114579786D03*
X146859512Y-114296943D03*
X146576669Y-114014100D03*
X146293827Y-113731257D03*
X146010984Y-113448415D03*
X145728141Y-113165572D03*
X145445298Y-112882729D03*
D69*
X144299786Y-112882729D03*
X144016943Y-113165572D03*
X143734100Y-113448415D03*
X143451257Y-113731257D03*
X143168415Y-114014100D03*
X142885572Y-114296943D03*
X142602729Y-114579786D03*
X142319887Y-114862628D03*
X142037044Y-115145471D03*
X141754201Y-115428314D03*
X141471358Y-115711156D03*
X141188516Y-115993999D03*
X140905673Y-116276842D03*
X140622830Y-116559685D03*
D70*
X144872542Y-117132441D03*
%TD*%
D71*
%TO.C,U5*%
X159100000Y-106840000D03*
D72*
X161380000Y-100170000D03*
D73*
X163660000Y-106840000D03*
%TD*%
D74*
%TO.C,CN1*%
X196310000Y-133180000D03*
X198310000Y-133180000D03*
D75*
X200660000Y-138930000D03*
X193960000Y-138930000D03*
%TD*%
D31*
%TO.C,R36*%
X130290000Y-101665000D03*
X129270000Y-101665000D03*
%TD*%
D76*
%TO.C,AE1*%
X125300000Y-136900000D03*
D46*
X127400000Y-136950000D03*
%TD*%
D21*
%TO.C,R44*%
X185070000Y-111400000D03*
X185070000Y-112420000D03*
%TD*%
D42*
%TO.C,R48*%
X205135000Y-109380000D03*
X203485000Y-109380000D03*
%TD*%
D31*
%TO.C,R32*%
X121240000Y-128265000D03*
X120220000Y-128265000D03*
%TD*%
D46*
%TO.C,J4*%
X210465000Y-125380000D03*
X210465000Y-119600000D03*
D47*
X209975000Y-126815000D03*
D48*
X214145000Y-126815000D03*
D47*
X209975000Y-118165000D03*
D48*
X214145000Y-118165000D03*
%TD*%
D31*
%TO.C,R33*%
X121040000Y-120765000D03*
X120020000Y-120765000D03*
%TD*%
D77*
%TO.C,X1*%
X151467624Y-125832376D03*
X153532376Y-123767624D03*
%TD*%
D43*
%TO.C,TP6*%
X144320000Y-102550000D03*
%TD*%
D27*
%TO.C,J19*%
X177010000Y-109420000D03*
D28*
X177010000Y-110690000D03*
%TD*%
D78*
%TO.C,R16*%
X197940000Y-126625000D03*
X197940000Y-124975000D03*
%TD*%
D79*
%TO.C,C13*%
X136571751Y-118471751D03*
X135228249Y-117128249D03*
%TD*%
D36*
%TO.C,C23*%
X133590000Y-98800000D03*
X134550000Y-98800000D03*
%TD*%
D58*
%TO.C,D5*%
X145657500Y-133330000D03*
X144082500Y-133330000D03*
%TD*%
D14*
%TO.C,J13*%
X177970000Y-89970000D03*
D15*
X175430000Y-89970000D03*
X172890000Y-89970000D03*
X170350000Y-89970000D03*
X167810000Y-89970000D03*
X165270000Y-89970000D03*
X162730000Y-89970000D03*
X160190000Y-89970000D03*
%TD*%
D21*
%TO.C,R53*%
X112410000Y-113090000D03*
X112410000Y-114110000D03*
%TD*%
D11*
%TO.C,R52*%
X114560000Y-114089999D03*
X114560000Y-113069999D03*
%TD*%
D57*
%TO.C,C4*%
X149340589Y-123200589D03*
X150019411Y-123879411D03*
%TD*%
D44*
%TO.C,C18*%
X181140000Y-104080000D03*
X180180000Y-104080000D03*
%TD*%
D31*
%TO.C,R30*%
X122560000Y-126180000D03*
X121540000Y-126180000D03*
%TD*%
D80*
%TO.C,U6*%
X119025000Y-126180000D03*
X119025000Y-124910000D03*
X119025000Y-123640000D03*
X119025000Y-122370000D03*
X113775000Y-122370000D03*
X113775000Y-123640000D03*
X113775000Y-124910000D03*
X113775000Y-126180000D03*
%TD*%
D43*
%TO.C,TP1*%
X124900000Y-126180000D03*
%TD*%
D16*
%TO.C,C17*%
X156180000Y-105730000D03*
X154280000Y-105730000D03*
%TD*%
D49*
%TO.C,C26*%
X127970000Y-104675000D03*
X127970000Y-105635000D03*
%TD*%
D21*
%TO.C,R49*%
X200150000Y-123510000D03*
X200150000Y-124530000D03*
%TD*%
D49*
%TO.C,C27*%
X127970000Y-99605000D03*
X127970000Y-100565000D03*
%TD*%
D81*
%TO.C,R8*%
X203955000Y-115560000D03*
X205605000Y-115560000D03*
%TD*%
D29*
%TO.C,J21*%
X209000000Y-91090000D03*
D30*
X209000000Y-96090000D03*
%TD*%
D80*
%TO.C,U7*%
X137455000Y-104455000D03*
X137455000Y-103185000D03*
X137455000Y-101915000D03*
X137455000Y-100645000D03*
X132205000Y-100645000D03*
X132205000Y-101915000D03*
X132205000Y-103185000D03*
X132205000Y-104455000D03*
%TD*%
D11*
%TO.C,R26*%
X108940000Y-125210000D03*
X108940000Y-124190000D03*
%TD*%
M02*
